<?xml version="1.0" encoding="UTF-8" standalone="no"?><!DOCTYPE svg PUBLIC "-//W3C//DTD SVG 1.1//EN" "http://www.w3.org/Graphics/SVG/1.1/DTD/svg11.dtd"><svg width="100%" height="100%" viewBox="0 0 8684 8684" version="1.1" xmlns="http://www.w3.org/2000/svg" xmlns:xlink="http://www.w3.org/1999/xlink" xml:space="preserve" xmlns:serif="http://www.serif.com/" style="fill-rule:evenodd;clip-rule:evenodd;stroke-linejoin:round;stroke-miterlimit:2;"><path d="M7293.42,4411.46c-0,1630.21 -1321.18,2953.12 -2953.12,2953.12c-1630.21,0 -2953.12,-1322.92 -2953.12,-2953.12c-0,-1630.21 1322.92,-2953.12 2953.12,-2953.12c1630.21,0 2953.12,1322.92 2953.12,2953.12" style="fill:#a9d1ed;fill-rule:nonzero;"/><path d="M6472.21,6276.04l-4263.88,-0c-217.012,-0 -394.096,-177.084 -394.096,-394.096l0,-3083.33c0,-217.016 177.084,-394.1 394.096,-394.1l4263.88,0c217.017,0 394.1,177.084 394.1,394.101l0,3083.33c0,217.012 -177.083,394.096 -394.1,394.096" style="fill:#fff;fill-rule:nonzero;"/><path d="M6472.21,6368.04l-4263.88,-0c-267.362,-0 -486.112,-218.75 -486.112,-486.109l-0,-3083.33c-0,-267.362 218.75,-486.112 486.112,-486.112l4263.88,-0c267.363,-0 486.113,218.75 486.113,486.112l-0,3083.33c-0,267.359 -217.013,486.109 -486.113,486.109Zm-4263.88,-3869.79c-166.666,-0 -302.083,135.417 -302.083,300.35l-0,3083.33c-0,166.667 135.417,302.084 302.083,302.084l4263.88,-0c166.667,-0 300.35,-135.417 300.35,-302.084l0,-3083.33c0,-166.667 -135.416,-300.35 -300.35,-300.35l-4263.88,-0Z" style="fill-rule:nonzero;"/><g><path d="M3406.56,5144.69l674.049,-674.049c2.848,-2.849 7.124,-7.124 8.546,-11.399c2.853,-2.853 5.705,-8.55 8.554,-11.399c2.849,-2.849 4.275,-7.128 8.55,-11.403c1.423,-4.275 4.275,-9.973 7.124,-12.822c1.427,-1.426 2.849,-5.701 4.276,-7.128c1.426,-1.426 -0,-2.852 1.422,-4.275c1.43,-4.275 4.279,-9.976 5.702,-14.251c1.426,-4.272 2.852,-8.551 4.275,-12.826c1.426,-4.271 1.426,-9.976 2.852,-14.248c1.423,-4.275 1.426,-9.976 1.423,-12.825l-0,-28.503c-0,-5.698 -1.423,-9.973 -2.849,-14.252c-1.426,-4.272 -1.423,-9.973 -2.852,-14.248c-1.423,-4.275 -2.846,-8.55 -4.276,-12.826c-1.422,-4.275 -2.845,-8.55 -5.697,-14.248c-1.427,-1.426 -0,-2.852 -1.427,-4.278c0.004,-2.849 -2.849,-5.702 -4.271,-7.124c-1.43,-4.276 -4.279,-9.977 -7.128,-12.826c-1.423,-4.275 -5.698,-8.55 -7.127,-12.825c-2.849,-2.849 -5.698,-8.551 -8.547,-11.399c-2.853,-2.853 -7.128,-7.128 -8.55,-11.403l-676.898,-676.898c-75.526,-75.526 -199.505,-76.949 -276.458,0.004c-76.952,76.952 -76.956,199.505 -0.003,276.457l334.887,334.887l-1074.48,0c-108.305,-0.003 -195.234,86.926 -195.23,195.23c-0.004,108.305 86.925,195.234 195.23,195.23l1074.48,0l-334.887,334.887c-75.526,75.526 -76.949,199.505 0.003,276.458c79.802,71.251 202.354,71.254 279.307,-5.698" style="fill:#fff;fill-rule:nonzero;"/><path d="M2186.74,4135.77c54.15,-54.151 126.827,-84.077 203.78,-84.077l846.477,0l-173.858,-173.857c-112.576,-112.577 -112.576,-294.985 0.003,-407.564c112.577,-112.577 294.985,-112.577 407.561,-0l676.898,676.897l-1.426,-1.426c7.127,7.127 11.402,11.403 15.674,18.527c2.852,2.852 5.705,8.55 9.98,12.825l2.849,5.701c2.849,5.702 7.124,9.977 9.976,15.675c2.849,5.701 5.698,11.402 8.55,17.1l1.423,4.275c1.423,4.276 2.849,5.702 4.275,9.974c1.427,4.278 4.276,9.979 4.276,12.825c2.848,5.701 2.852,11.403 5.701,17.104l-0.004,2.849c2.853,5.698 2.853,11.402 4.279,15.674l-0,2.853c1.426,7.124 1.423,12.825 2.849,19.949c1.426,7.124 1.423,12.825 2.849,19.95c-0,8.55 0.003,14.251 1.426,21.379c1.426,7.124 0,14.248 -1.426,21.372c0.003,5.701 -1.426,9.976 -2.849,17.104l-0,2.845c-1.423,7.128 -2.849,14.252 -2.852,19.953c-1.423,7.128 -2.849,14.252 -5.698,19.953c-1.427,7.124 -4.275,12.826 -5.702,19.95c0.004,2.849 -1.422,4.275 -1.426,7.124c-1.423,4.275 -4.272,9.976 -5.698,14.248c-2.849,5.701 -5.698,11.403 -8.55,17.101c-4.275,7.127 -7.124,12.828 -11.399,17.103c-2.853,5.698 -8.554,11.4 -14.252,19.95c-4.275,4.275 -7.124,9.976 -11.399,14.252l-676.898,676.897c-112.576,112.577 -294.984,112.577 -407.564,-0.003c-112.576,-112.576 -112.576,-294.985 0,-407.561l173.858,-173.858l-846.477,0c-76.952,0 -149.63,-29.926 -203.78,-84.076c-54.154,-54.154 -84.08,-126.832 -84.08,-203.784c-1.423,-78.375 28.503,-151.052 82.654,-205.203Zm1506.27,104.026l-1302.49,0.003c-25.651,0 -52.724,9.973 -71.251,28.5c-18.527,18.527 -29.926,44.174 -28.5,71.251c0,25.651 9.973,52.725 28.5,71.251c18.527,18.527 44.174,29.926 71.251,28.5l1302.49,0.004l-495.916,495.915c-38.476,38.477 -39.899,102.604 0,142.503c38.477,38.476 102.607,39.902 142.506,0.003l675.472,-675.471l5.701,-8.554l2.849,-2.849c1.426,-1.426 1.423,-4.275 4.275,-7.128c1.423,-1.422 1.426,-4.271 1.426,-4.271c1.426,-1.427 1.423,-4.275 2.849,-5.702l1.423,-4.275c1.426,-1.426 0.003,-2.849 1.429,-4.275c1.423,-1.423 1.423,-4.275 1.423,-7.127l1.426,-7.125l0,-14.248c-1.426,-1.426 -1.426,-4.278 -1.426,-7.124c0,-2.852 0,-5.705 -1.423,-7.127c-1.426,-1.426 -0.003,-2.849 -1.429,-4.275l0.003,-2.849c-1.426,-1.427 -1.426,-4.279 -1.426,-7.124l0,-2.853c-1.426,-1.426 -1.426,-1.426 -1.423,-4.275l-1.426,-1.426c-1.426,-1.426 -1.426,-4.272 -1.426,-4.272c-2.852,-2.852 -2.849,-5.701 -4.275,-7.127l-685.448,-685.448c-38.476,-38.476 -102.603,-39.899 -142.502,-0c-39.903,39.902 -39.903,102.606 -0.004,142.505l495.916,495.916l1.426,-1.426Z" style="fill-rule:nonzero;"/></g><g><path d="M5275.98,5146.82l-674.046,-674.046c-2.849,-2.849 -7.124,-7.124 -8.55,-11.402c-2.849,-2.849 -5.701,-8.547 -8.55,-11.396c-2.853,-2.853 -4.275,-7.128 -8.55,-11.403c-1.423,-4.275 -4.276,-9.973 -7.128,-12.825c-1.423,-1.423 -2.849,-5.702 -4.272,-7.124c-1.426,-1.427 0,-2.853 -1.426,-4.279c-1.426,-4.272 -4.275,-9.973 -5.698,-14.248c-1.429,-4.275 -2.852,-8.55 -4.275,-12.825c-1.429,-4.276 -1.426,-9.977 -2.852,-14.249c-1.426,-4.278 -1.426,-9.976 -1.426,-12.828l0.003,-28.5c-0.003,-5.702 1.423,-9.973 2.849,-14.252c1.423,-4.275 1.423,-9.973 2.849,-14.251c1.426,-4.272 2.849,-8.547 4.275,-12.826c1.426,-4.272 2.849,-8.547 5.698,-14.248c1.426,-1.426 0.003,-2.849 1.43,-4.275c-0.004,-2.849 2.849,-5.701 4.271,-7.124c1.426,-4.279 4.279,-9.977 7.128,-12.826c1.423,-4.275 5.698,-8.55 7.124,-12.828c2.849,-2.849 5.701,-8.547 8.55,-11.396c2.853,-2.853 7.128,-7.128 8.55,-11.403l676.898,-676.898c75.526,-75.526 199.505,-76.949 276.458,0.004c75.526,75.526 76.952,199.502 -0,276.454l-334.887,334.887l1074.49,0.003c108.305,-0.003 195.234,86.926 195.23,195.23c0,108.302 -86.929,195.23 -195.23,195.23l-1074.48,0l334.884,334.884c75.529,75.529 76.952,199.508 -0,276.461c-79.802,71.251 -203.781,69.828 -279.31,-5.701" style="fill:#fff;fill-rule:nonzero;"/><path d="M6494.39,4136.48c54.151,54.151 84.077,126.828 84.077,203.781c-0,76.952 -29.926,149.629 -84.077,203.78c-54.15,54.15 -126.827,84.076 -203.78,84.076l-846.477,0l173.858,173.858c112.576,112.577 112.576,294.985 -0.003,407.564c-112.577,112.577 -294.985,112.577 -407.561,0l-676.898,-676.897c-4.275,-4.275 -8.55,-8.551 -11.399,-14.252c-7.124,-7.124 -9.976,-12.822 -12.825,-18.523c-4.276,-7.128 -8.551,-11.403 -11.403,-17.101c-4.275,-7.127 -7.124,-12.829 -9.976,-18.527c-2.849,-5.701 -4.272,-9.976 -5.698,-14.248c-0,-2.852 -1.427,-4.278 -2.849,-8.553c-2.853,-5.698 -4.275,-12.826 -5.702,-19.95c-1.426,-7.124 -4.275,-12.825 -5.701,-19.949c-1.423,-7.128 -2.849,-14.252 -4.275,-21.376l-0,-2.852c-0,-5.698 -1.423,-12.826 -1.423,-18.524l-0.003,-39.902c-0,-8.55 1.426,-15.674 2.852,-22.799c1.423,-7.127 1.426,-12.828 4.275,-18.53l0,-2.845c0,-5.705 2.853,-11.403 5.702,-17.104l1.422,-1.423c2.849,-5.701 2.853,-11.403 5.702,-17.104c-0,-2.845 1.426,-7.124 4.275,-12.825c1.426,-4.272 2.852,-5.698 4.275,-9.973l11.399,-22.802c1.426,-4.272 5.701,-8.547 9.977,-15.675l4.275,-7.127c4.275,-4.275 5.701,-8.547 9.976,-12.822c4.275,-4.275 8.55,-11.403 12.826,-15.678l671.196,-671.196c112.576,-112.577 294.984,-112.577 407.561,-0c112.579,112.58 112.579,294.988 0.003,407.564l-173.858,173.858l846.477,-0c76.953,-0 149.63,29.926 203.78,84.076Zm-1151.44,943.379c38.476,38.476 102.606,39.902 142.509,0c38.476,-38.476 39.899,-102.603 -0.004,-142.506l-495.915,-495.915l1299.64,-0c25.651,-0 52.728,-9.977 71.251,-28.5c18.527,-18.527 29.929,-44.178 28.503,-71.255c0,-25.65 -9.973,-52.724 -28.5,-71.251c-18.526,-18.527 -44.177,-29.922 -71.251,-28.5l-1302.49,0l497.342,-497.342c38.476,-38.476 39.899,-102.603 -0,-142.502c-38.477,-38.476 -102.607,-39.902 -142.506,-0.003l-675.472,675.471l-4.275,7.128c-1.426,1.426 -2.849,2.849 -2.849,5.701c-1.426,1.426 -1.426,4.272 -2.852,5.698l-1.426,1.426c-1.423,1.423 -1.423,1.423 -1.423,4.275l0,2.853c-1.423,1.422 -1.426,4.271 -1.426,7.124l0.003,2.849c-1.426,1.426 -0.003,2.849 -1.429,4.275c0.003,2.849 -1.423,4.275 -1.423,7.127l-0,22.799l1.426,7.124c0,2.852 -0.003,5.701 1.423,7.127c-0,0 1.426,1.427 1.426,4.272l1.426,4.279c-0.003,2.849 1.423,4.275 2.849,5.701l1.423,1.423c1.426,1.426 1.43,4.275 2.852,5.698c1.426,1.426 2.849,5.701 4.275,7.127l2.849,2.849l5.702,8.554l672.619,672.619l-4.275,4.275Z" style="fill-rule:nonzero;"/></g></svg>