<?xml version="1.0" encoding="UTF-8" standalone="no"?><!DOCTYPE svg PUBLIC "-//W3C//DTD SVG 1.1//EN" "http://www.w3.org/Graphics/SVG/1.1/DTD/svg11.dtd"><svg width="100%" height="100%" viewBox="0 0 8684 8684" version="1.1" xmlns="http://www.w3.org/2000/svg" xmlns:xlink="http://www.w3.org/1999/xlink" xml:space="preserve" xmlns:serif="http://www.serif.com/" style="fill-rule:evenodd;clip-rule:evenodd;stroke-linejoin:round;stroke-miterlimit:2;"><path d="M7293.42,4411.46c-0,1630.21 -1321.18,2953.12 -2953.12,2953.12c-1630.21,0 -2953.12,-1322.92 -2953.12,-2953.12c-0,-1630.21 1322.92,-2953.12 2953.12,-2953.12c1630.21,0 2953.12,1322.92 2953.12,2953.12" style="fill:#a9d1ed;fill-rule:nonzero;"/><path d="M6472.21,6276.04l-4263.88,-0c-217.012,-0 -394.096,-177.084 -394.096,-394.096l0,-3083.33c0,-217.016 177.084,-394.1 394.096,-394.1l4263.88,0c217.017,0 394.1,177.084 394.1,394.101l0,3083.33c0,217.012 -177.083,394.096 -394.1,394.096" style="fill:#fff;fill-rule:nonzero;"/><path d="M6472.21,6368.04l-4263.88,-0c-267.362,-0 -486.112,-218.75 -486.112,-486.109l-0,-3083.33c-0,-267.362 218.75,-486.112 486.112,-486.112l4263.88,-0c267.363,-0 486.113,218.75 486.113,486.112l-0,3083.33c-0,267.359 -217.013,486.109 -486.113,486.109Zm-4263.88,-3869.79c-166.666,-0 -302.083,135.417 -302.083,300.35l-0,3083.33c-0,166.667 135.417,302.084 302.083,302.084l4263.88,-0c166.667,-0 300.35,-135.417 300.35,-302.084l0,-3083.33c0,-166.667 -135.416,-300.35 -300.35,-300.35l-4263.88,-0Z" style="fill-rule:nonzero;"/><g><g><path d="M2917.8,3535.84l-674.049,674.049c-2.849,2.849 -7.124,7.124 -8.547,11.399c-2.852,2.852 -5.705,8.55 -8.554,11.399c-2.849,2.849 -4.275,7.128 -8.55,11.403c-1.423,4.275 -4.275,9.973 -7.124,12.822c-1.426,1.426 -2.849,5.701 -4.275,7.127c-1.426,1.426 -0,2.853 -1.423,4.275c-1.43,4.276 -4.279,9.977 -5.701,14.252c-1.426,4.272 -2.853,8.55 -4.275,12.825c-1.427,4.272 -1.427,9.977 -2.853,14.249c-1.423,4.275 -1.426,9.976 -1.423,12.825l0,28.503c0,5.698 1.423,9.973 2.849,14.252c1.427,4.271 1.423,9.973 2.853,14.248c1.423,4.275 2.845,8.55 4.275,12.825c1.423,4.275 2.845,8.551 5.698,14.249c1.426,1.426 -0,2.852 1.426,4.278c-0.003,2.849 2.849,5.701 4.272,7.124c1.429,4.275 4.278,9.977 7.127,12.826c1.423,4.275 5.698,8.55 7.128,12.825c2.849,2.849 5.698,8.55 8.547,11.399c2.852,2.853 7.127,7.128 8.55,11.403l676.897,676.897c75.527,75.527 199.506,76.95 276.458,-0.003c76.953,-76.952 76.956,-199.505 0.004,-276.458l-334.887,-334.886l1074.48,-0c108.304,0.003 195.233,-86.926 195.23,-195.23c0.003,-108.305 -86.926,-195.234 -195.23,-195.23l-1074.48,-0l334.887,-334.887c75.526,-75.527 76.949,-199.505 -0.004,-276.458c-79.801,-71.251 -202.354,-71.254 -279.306,5.698" style="fill:#fff;fill-rule:nonzero;"/><path d="M4137.62,4544.76c-54.151,54.15 -126.828,84.076 -203.781,84.076l-846.477,0l173.858,173.858c112.577,112.576 112.577,294.985 -0.003,407.564c-112.576,112.577 -294.984,112.577 -407.561,0l-676.897,-676.897l1.426,1.426c-7.128,-7.128 -11.403,-11.403 -15.675,-18.527c-2.852,-2.852 -5.704,-8.55 -9.979,-12.825l-2.849,-5.702c-2.849,-5.701 -7.125,-9.976 -9.977,-15.674c-2.849,-5.701 -5.698,-11.403 -8.55,-17.101l-1.423,-4.275c-1.423,-4.275 -2.849,-5.701 -4.275,-9.973c-1.426,-4.278 -4.275,-9.98 -4.275,-12.825c-2.849,-5.702 -2.853,-11.403 -5.702,-17.104l0.004,-2.849c-2.852,-5.698 -2.852,-11.403 -4.279,-15.674l0,-2.853c-1.426,-7.124 -1.422,-12.825 -2.849,-19.949c-1.426,-7.124 -1.422,-12.826 -2.849,-19.95c0,-8.55 -0.003,-14.251 -1.426,-21.379c-1.426,-7.124 0,-14.248 1.426,-21.372c-0.003,-5.701 1.427,-9.977 2.849,-17.104l0,-2.846c1.423,-7.127 2.849,-14.251 2.853,-19.953c1.423,-7.127 2.849,-14.251 5.698,-19.952c1.426,-7.125 4.275,-12.826 5.701,-19.95c-0.003,-2.849 1.423,-4.275 1.426,-7.124c1.423,-4.275 4.272,-9.977 5.698,-14.248c2.849,-5.702 5.698,-11.403 8.55,-17.101c4.275,-7.127 7.124,-12.829 11.4,-17.104c2.852,-5.698 8.553,-11.399 14.251,-19.949c4.275,-4.275 7.124,-9.977 11.399,-14.252l676.898,-676.897c112.576,-112.577 294.984,-112.577 407.564,0.003c112.576,112.576 112.576,294.984 0,407.561l-173.858,173.857l846.477,0c76.953,0 149.63,29.926 203.781,84.077c54.154,54.154 84.079,126.831 84.079,203.784c1.423,78.375 -28.503,151.052 -82.653,205.203Zm-1506.27,-104.026l1302.49,-0.004c25.651,0 52.725,-9.973 71.252,-28.499c18.526,-18.527 29.925,-44.175 28.499,-71.252c0,-25.65 -9.973,-52.724 -28.499,-71.251c-18.527,-18.526 -44.175,-29.926 -71.252,-28.499l-1302.49,-0.004l495.916,-495.916c38.476,-38.476 39.899,-102.603 -0,-142.502c-38.476,-38.476 -102.607,-39.902 -142.506,-0.003l-675.471,675.471l-5.702,8.554l-2.848,2.849c-1.427,1.426 -1.423,4.275 -4.276,7.127c-1.422,1.423 -1.426,4.272 -1.426,4.272c-1.426,1.426 -1.423,4.275 -2.849,5.701l-1.423,4.276c-1.426,1.426 -0.003,2.848 -1.429,4.275c-1.423,1.422 -1.423,4.275 -1.423,7.127l-1.426,7.124l-0,14.248c1.426,1.427 1.426,4.279 1.426,7.124c0,2.853 0,5.705 1.423,7.128c1.426,1.426 0.003,2.849 1.429,4.275l-0.003,2.849c1.426,1.426 1.426,4.279 1.426,7.124l0,2.853c1.426,1.426 1.426,1.426 1.423,4.275l1.426,1.426c1.426,1.426 1.426,4.272 1.426,4.272c2.853,2.852 2.849,5.701 4.276,7.127l685.447,685.448c38.477,38.476 102.604,39.899 142.503,0c39.902,-39.902 39.902,-102.607 0.003,-142.506l-495.916,-495.915l-1.426,1.426Z" style="fill-rule:nonzero;"/></g><g><path d="M5763.34,3533.71l674.045,674.045c2.849,2.849 7.125,7.124 8.551,11.403c2.849,2.848 5.701,8.546 8.55,11.395c2.852,2.853 4.275,7.128 8.55,11.403c1.423,4.275 4.275,9.973 7.128,12.825c1.423,1.423 2.849,5.702 4.271,7.124c1.427,1.427 0,2.853 1.427,4.279c1.426,4.272 4.275,9.973 5.698,14.248c1.429,4.275 2.852,8.55 4.275,12.826c1.429,4.275 1.426,9.976 2.852,14.248c1.426,4.278 1.426,9.976 1.426,12.829l-0.003,28.499c0.003,5.702 -1.423,9.973 -2.849,14.252c-1.423,4.275 -1.423,9.973 -2.849,14.252c-1.426,4.271 -2.849,8.546 -4.275,12.825c-1.426,4.272 -2.849,8.547 -5.698,14.248c-1.426,1.426 -0.004,2.849 -1.43,4.275c0.004,2.849 -2.849,5.702 -4.271,7.124c-1.427,4.279 -4.279,9.977 -7.128,12.826c-1.423,4.275 -5.698,8.55 -7.124,12.829c-2.849,2.849 -5.701,8.546 -8.55,11.395c-2.853,2.853 -7.128,7.128 -8.551,11.403l-676.897,676.898c-75.526,75.526 -199.505,76.949 -276.458,-0.004c-75.526,-75.526 -76.952,-199.502 0,-276.454l334.887,-334.887l-1074.49,-0.003c-108.305,0.003 -195.234,-86.926 -195.23,-195.23c-0,-108.301 86.928,-195.23 195.23,-195.23l1074.48,-0l-334.884,-334.884c-75.53,-75.529 -76.952,-199.508 0,-276.461c79.802,-71.251 203.78,-69.828 279.31,5.702" style="fill:#fff;fill-rule:nonzero;"/><path d="M4544.93,4544.05c-54.15,-54.151 -84.076,-126.828 -84.076,-203.78c-0,-76.953 29.926,-149.63 84.076,-203.781c54.151,-54.15 126.828,-84.076 203.781,-84.076l846.477,-0l-173.858,-173.858c-112.576,-112.576 -112.576,-294.984 0.003,-407.564c112.577,-112.577 294.985,-112.577 407.561,-0l676.898,676.897c4.275,4.276 8.55,8.551 11.399,14.252c7.124,7.124 9.976,12.822 12.825,18.523c4.275,7.128 8.551,11.403 11.403,17.101c4.275,7.127 7.124,12.829 9.976,18.527c2.849,5.701 4.272,9.976 5.698,14.248c0,2.852 1.426,4.278 2.849,8.553c2.853,5.698 4.275,12.826 5.702,19.95c1.426,7.124 4.275,12.825 5.701,19.949c1.423,7.128 2.849,14.252 4.275,21.376l-0,2.853c-0,5.697 1.423,12.825 1.423,18.523l0.003,39.902c0,8.551 -1.426,15.675 -2.852,22.799c-1.423,7.127 -1.426,12.829 -4.275,18.53l-0,2.845c-0,5.705 -2.853,11.403 -5.702,17.104l-1.422,1.423c-2.849,5.701 -2.853,11.403 -5.702,17.104c0,2.846 -1.426,7.124 -4.275,12.825c-1.426,4.272 -2.852,5.698 -4.275,9.973l-11.399,22.802c-1.426,4.272 -5.702,8.547 -9.977,15.675l-4.275,7.127c-4.275,4.275 -5.701,8.547 -9.976,12.822c-4.275,4.275 -8.551,11.403 -12.826,15.678l-671.196,671.196c-112.576,112.577 -294.984,112.577 -407.561,0c-112.579,-112.579 -112.579,-294.987 -0.003,-407.564l173.858,-173.858l-846.477,0c-76.953,0 -149.63,-29.926 -203.781,-84.076Zm1151.44,-943.379c-38.476,-38.476 -102.607,-39.902 -142.509,0c-38.476,38.476 -39.899,102.603 0.004,142.506l495.915,495.915l-1299.64,0c-25.651,0 -52.728,9.977 -71.251,28.5c-18.527,18.527 -29.93,44.178 -28.503,71.255c-0,25.651 9.973,52.724 28.499,71.251c18.527,18.527 44.178,29.922 71.252,28.5l1302.49,-0l-497.342,497.342c-38.476,38.476 -39.899,102.603 0,142.502c38.476,38.476 102.607,39.902 142.506,0.003l675.471,-675.471l4.276,-7.128c1.426,-1.426 2.848,-2.849 2.848,-5.701c1.427,-1.426 1.427,-4.272 2.853,-5.698l1.426,-1.426c1.423,-1.423 1.423,-1.423 1.423,-4.275l-0,-2.853c1.423,-1.422 1.426,-4.271 1.426,-7.124l-0.003,-2.849c1.426,-1.426 0.003,-2.849 1.429,-4.275c-0.003,-2.849 1.423,-4.275 1.423,-7.127l-0,-22.799l-1.426,-7.124c-0,-2.852 0.003,-5.701 -1.423,-7.127c-0,-0 -1.426,-1.426 -1.426,-4.272l-1.426,-4.279c0.003,-2.849 -1.423,-4.275 -2.849,-5.701l-1.423,-1.423c-1.426,-1.426 -1.43,-4.275 -2.852,-5.698c-1.427,-1.426 -2.849,-5.701 -4.276,-7.127l-2.849,-2.849l-5.701,-8.554l-672.619,-672.619l4.275,-4.275Z" style="fill-rule:nonzero;"/></g></g></svg>