<?xml version="1.0" encoding="utf-8"?>
<!-- Generator: Adobe Illustrator 25.2.1, SVG Export Plug-In . SVG Version: 6.00 Build 0)  -->
<svg version="1.1" id="Layer_1" xmlns="http://www.w3.org/2000/svg" xmlns:xlink="http://www.w3.org/1999/xlink" x="0px" y="0px"
	 viewBox="0 0 500 500" style="enable-background:new 0 0 500 500;" xml:space="preserve">
<style type="text/css">
	.st0{fill:#9FCAAA;}
	.st1{fill:none;stroke:#1D1D1B;stroke-width:4.4812;stroke-miterlimit:10;}
	.st2{fill:#FFFFFF;}
</style>
<path class="st0" d="M420.1,254.1c0,93.9-76.1,170.1-170.1,170.1c-93.9,0-170.1-76.2-170.1-170.1C79.9,160.2,156.1,84,250,84
	C343.9,84,420.1,160.2,420.1,254.1"/>
<rect y="0" class="st1" width="500" height="500"/>
<path class="st2" d="M320.9,313.4h-143c-7.3,0-13.2-5.9-13.2-13.2V196.8c0-7.3,5.9-13.2,13.2-13.2h143c7.3,0,13.2,5.9,13.2,13.2
	v103.4C334.1,307.5,328.2,313.4,320.9,313.4"/>
<path d="M320.9,318.7h-143c-10.2,0-18.5-8.3-18.5-18.5V196.8c0-10.2,8.3-18.5,18.5-18.5h143c10.2,0,18.5,8.3,18.5,18.5v103.4
	C339.5,310.4,331.2,318.7,320.9,318.7z M177.9,188.9c-4.3,0-7.9,3.5-7.9,7.9v103.4c0,4.3,3.5,7.9,7.9,7.9h143c4.3,0,7.9-3.5,7.9-7.9
	V196.8c0-4.3-3.5-7.9-7.9-7.9H177.9z"/>
<path class="st2" d="M401.4,180.5h-46.8c-0.2,0-0.3,0-0.5,0c-0.2,0-0.5,0-0.7-0.1c-0.2,0-0.5-0.1-0.7-0.1c-0.2,0-0.4-0.1-0.7-0.2
	c-0.2-0.1-0.5-0.1-0.7-0.2c-0.1,0-0.3-0.1-0.4-0.1c-0.1,0-0.1-0.1-0.2-0.1c-0.2-0.1-0.5-0.2-0.7-0.3c-0.2-0.1-0.4-0.2-0.6-0.3
	c-0.2-0.1-0.4-0.3-0.6-0.4c-0.2-0.1-0.4-0.3-0.5-0.4c-0.2-0.2-0.3-0.3-0.5-0.5c-0.2-0.2-0.3-0.3-0.5-0.5c-0.2-0.2-0.3-0.4-0.4-0.6
	c-0.1-0.2-0.3-0.4-0.4-0.6c-0.1-0.2-0.2-0.4-0.3-0.6c-0.1-0.2-0.2-0.4-0.3-0.7c0-0.1-0.1-0.1-0.1-0.2c-0.1-0.1-0.1-0.3-0.1-0.4
	c-0.1-0.2-0.2-0.5-0.2-0.7c-0.1-0.2-0.1-0.5-0.2-0.7c0-0.2-0.1-0.5-0.1-0.7c0-0.2,0-0.5-0.1-0.7c0-0.2,0-0.3,0-0.5V124
	c0-5.3,4.3-9.7,9.7-9.7c5.3,0,9.7,4.3,9.7,9.7v23.5l37.7-37.7c3.8-3.8,9.9-3.8,13.7,0c3.8,3.8,3.8,9.9,0,13.7l-37.7,37.7h23.5
	c5.3,0,9.7,4.3,9.7,9.7C411.1,176.2,406.7,180.5,401.4,180.5"/>
<path d="M401.4,185.2h-46.8c-0.2,0-0.5,0-0.7,0l0,0c-0.3,0-0.7,0-1-0.1c-0.4,0-0.7-0.1-1.1-0.2c-0.3-0.1-0.7-0.1-1-0.2
	c-0.3-0.1-0.6-0.2-1-0.3c-0.3-0.1-0.5-0.2-0.7-0.3c-0.1,0-0.2-0.1-0.3-0.1l0,0c-0.3-0.2-0.7-0.3-1-0.5c-0.3-0.1-0.6-0.3-0.9-0.5
	c-0.2-0.1-0.5-0.3-0.8-0.5l2.7-3.8l-2.8,3.8c-0.3-0.2-0.6-0.4-0.8-0.6c-0.2-0.2-0.5-0.4-0.7-0.7c-0.3-0.3-0.5-0.5-0.7-0.8
	c-0.2-0.3-0.4-0.5-0.6-0.7l-0.1-0.1c-0.2-0.3-0.4-0.6-0.6-0.8l-0.1-0.1c-0.1-0.2-0.2-0.4-0.4-0.6l-0.2-0.4c-0.1-0.2-0.2-0.4-0.3-0.6
	c-0.1-0.1-0.2-0.3-0.2-0.5c-0.1-0.2-0.1-0.3-0.2-0.5l-0.1-0.2c-0.1-0.3-0.2-0.6-0.3-0.9c-0.1-0.3-0.1-0.6-0.2-0.8l0-0.2
	c-0.1-0.4-0.1-0.7-0.2-1.1c0-0.3-0.1-0.6-0.1-1c0-0.2,0-0.5,0-0.7V124c0-7.9,6.4-14.3,14.3-14.3s14.3,6.4,14.3,14.3v12.2l29.7-29.7
	c5.6-5.6,14.7-5.6,20.3,0c2.7,2.7,4.2,6.3,4.2,10.1s-1.5,7.4-4.2,10.1l-29.7,29.7h12.2c7.9,0,14.3,6.4,14.3,14.3
	C415.8,178.8,409.3,185.2,401.4,185.2z M354.7,175.8h46.7c2.7,0,5-2.2,5-5c0-2.7-2.2-5-5-5h-34.8l45.7-45.7c0.9-0.9,1.5-2.2,1.5-3.5
	s-0.5-2.6-1.5-3.5c-1.9-1.9-5.1-1.9-7,0l-45.7,45.7V124c0-2.7-2.2-5-5-5s-5,2.2-5,5v46.7l0,0.3c0,0.2,0,0.3,0,0.4
	c0,0.2,0,0.3,0.1,0.4l0,0.1c0,0.1,0,0.2,0.1,0.2l0,0.1c0,0.1,0.1,0.2,0.1,0.2l0,0.1c0,0.1,0,0.1,0.1,0.2c0,0,0,0,0,0l0.3,0.6
	c0,0.1,0.1,0.1,0.1,0.2c0.1,0.1,0.1,0.2,0.2,0.3l0,0c0.1,0.1,0.1,0.2,0.2,0.3c0,0,0.1,0.1,0.2,0.2l0.1,0.1c0.1,0.1,0.1,0.1,0.2,0.2
	c0.1,0.1,0.2,0.1,0.3,0.2l0.1,0.1c0.1,0,0.1,0.1,0.2,0.1c0.1,0.1,0.2,0.1,0.3,0.2c0.2,0.1,0.3,0.1,0.4,0.2c0,0,0,0,0.1,0
	c0.1,0,0.2,0.1,0.2,0.1c0.1,0,0.2,0.1,0.3,0.1c0.2,0,0.3,0.1,0.4,0.1c0.1,0,0.2,0,0.3,0.1l0.1,0c0.1,0,0.2,0,0.3,0
	C354.5,175.8,354.6,175.8,354.7,175.8z M349.6,170.7L349.6,170.7C349.6,170.7,349.6,170.7,349.6,170.7z"/>
<path class="st2" d="M155.1,124v46.8c0,0.2,0,0.3,0,0.5c0,0.2,0,0.5-0.1,0.7c0,0.2-0.1,0.5-0.1,0.7c0,0.2-0.1,0.4-0.1,0.7
	c-0.1,0.2-0.2,0.5-0.2,0.7c0,0.1-0.1,0.3-0.1,0.4c0,0.1-0.1,0.1-0.1,0.2c-0.1,0.2-0.2,0.4-0.3,0.7c-0.1,0.2-0.2,0.4-0.3,0.6
	c-0.1,0.2-0.3,0.4-0.4,0.6c-0.1,0.2-0.3,0.4-0.4,0.5c-0.2,0.2-0.3,0.3-0.5,0.5c-0.2,0.2-0.3,0.3-0.5,0.5c-0.2,0.2-0.4,0.3-0.6,0.4
	c-0.2,0.1-0.4,0.3-0.6,0.4c-0.2,0.1-0.4,0.2-0.6,0.3c-0.2,0.1-0.4,0.2-0.7,0.3c-0.1,0-0.1,0.1-0.2,0.1c-0.1,0.1-0.3,0.1-0.4,0.1
	c-0.2,0.1-0.5,0.2-0.7,0.2c-0.2,0.1-0.5,0.1-0.7,0.2c-0.2,0-0.5,0.1-0.7,0.1c-0.2,0-0.5,0-0.7,0.1c-0.2,0-0.3,0-0.5,0H98.6
	c-5.3,0-9.7-4.3-9.7-9.7c0-5.3,4.3-9.7,9.7-9.7h23.5l-37.7-37.7c-3.8-3.8-3.8-9.9,0-13.7c3.8-3.8,9.9-3.8,13.7,0l37.7,37.7V124
	c0-5.3,4.3-9.7,9.7-9.7C150.7,114.4,155.1,118.7,155.1,124"/>
<path d="M145.4,185.2H98.6c-7.9,0-14.3-6.4-14.3-14.3c0-7.9,6.4-14.3,14.3-14.3h12.2l-29.7-29.7c-5.6-5.6-5.6-14.7,0-20.3
	c2.7-2.7,6.3-4.2,10.1-4.2s7.4,1.5,10.1,4.2l29.7,29.7V124c0-7.9,6.4-14.3,14.3-14.3c7.9,0,14.3,6.4,14.3,14.3v46.8
	c0,0.3,0,0.5,0,0.8c0,0.3,0,0.6-0.1,0.9c0,0.5-0.1,0.8-0.2,1.1l0,0.1c-0.1,0.3-0.1,0.6-0.2,0.9c-0.1,0.4-0.2,0.7-0.3,1
	c-0.1,0.2-0.2,0.5-0.3,0.7c-0.1,0.1-0.1,0.2-0.2,0.4l0,0c-0.1,0.3-0.3,0.6-0.5,0.9c-0.2,0.3-0.3,0.6-0.5,0.9
	c-0.2,0.4-0.4,0.7-0.7,0.9l-0.1,0.1c-0.2,0.2-0.4,0.5-0.5,0.7c-0.2,0.3-0.5,0.5-0.8,0.8c-0.2,0.2-0.5,0.5-0.7,0.7
	c-0.2,0.2-0.5,0.4-0.8,0.6c-0.3,0.2-0.5,0.4-0.8,0.5l-0.1,0.1c-0.2,0.2-0.5,0.3-0.8,0.4l-0.1,0.1c-0.3,0.1-0.5,0.3-0.8,0.4
	c-0.2,0.1-0.4,0.2-0.6,0.3c-0.2,0.1-0.4,0.1-0.6,0.2l0,0c-0.3,0.1-0.7,0.2-1,0.3c-0.3,0.1-0.7,0.2-1,0.2c-0.4,0.1-0.7,0.1-1,0.2
	c-0.3,0-0.7,0.1-1,0.1C145.9,185.2,145.7,185.2,145.4,185.2z M98.6,165.9c-2.7,0-5,2.2-5,5s2.2,5,5,5h46.7c0.1,0,0.2,0,0.3,0l0.1,0
	c0.1,0,0.2,0,0.3,0c0.2,0,0.3-0.1,0.5-0.1c0.1,0,0.2,0,0.3-0.1l0.1,0c0.1,0,0.2-0.1,0.2-0.1c0.1,0,0.2-0.1,0.3-0.1l0.1-0.1
	c0.1,0,0.2-0.1,0.3-0.2l0.1-0.1c0.1,0,0.1-0.1,0.2-0.1c0.1-0.1,0.2-0.1,0.3-0.2c0.1-0.1,0.2-0.1,0.3-0.2c0.1-0.1,0.1-0.1,0.2-0.2
	l0.1-0.1c0.1-0.1,0.1-0.1,0.2-0.2l0.3-0.3c0.1-0.1,0.2-0.2,0.2-0.3l0,0c0,0,0-0.1,0.1-0.2l0.1-0.1c0.1-0.1,0.1-0.2,0.2-0.3
	c0,0,0,0,0,0c0-0.1,0.1-0.2,0.1-0.3c0.1-0.2,0.1-0.3,0.1-0.4l0-0.3c0-0.1,0-0.2,0.1-0.3l0-0.1c0-0.1,0-0.2,0-0.4c0-0.1,0-0.2,0-0.4
	V124c0-2.7-2.2-5-5-5c-2.7,0-5,2.2-5,5v34.8l-45.7-45.7c-0.9-0.9-2.2-1.5-3.5-1.5s-2.6,0.5-3.5,1.5c-1.9,1.9-1.9,5.1,0,7l45.7,45.7
	H98.6z M159.7,171.5c0,0.1,0,0.1,0,0.2C159.7,171.6,159.7,171.5,159.7,171.5z"/>
<path class="st2" d="M401.4,319.5h-46.8c-0.2,0-0.3,0-0.5,0c-0.2,0-0.5,0-0.7,0.1c-0.2,0-0.5,0.1-0.7,0.1c-0.2,0-0.4,0.1-0.7,0.2
	c-0.2,0.1-0.5,0.2-0.7,0.2c-0.1,0.1-0.3,0.1-0.4,0.1c-0.1,0-0.1,0.1-0.2,0.1c-0.2,0.1-0.5,0.2-0.7,0.3c-0.2,0.1-0.4,0.2-0.6,0.3
	c-0.2,0.1-0.4,0.3-0.6,0.4c-0.2,0.1-0.4,0.3-0.5,0.4c-0.2,0.2-0.3,0.3-0.5,0.5c-0.2,0.2-0.3,0.3-0.5,0.5c-0.2,0.2-0.3,0.4-0.4,0.6
	c-0.1,0.2-0.3,0.4-0.4,0.6c-0.1,0.2-0.2,0.4-0.3,0.6c-0.1,0.2-0.2,0.4-0.3,0.7c0,0.1-0.1,0.1-0.1,0.2c-0.1,0.1-0.1,0.3-0.1,0.4
	c-0.1,0.2-0.2,0.5-0.2,0.7c-0.1,0.2-0.1,0.5-0.2,0.7c0,0.2-0.1,0.5-0.1,0.7c0,0.2,0,0.5-0.1,0.7c0,0.2,0,0.3,0,0.5V376
	c0,5.3,4.3,9.7,9.7,9.7c5.3,0,9.7-4.3,9.7-9.7v-23.5l37.7,37.7c3.8,3.8,9.9,3.8,13.7,0c3.8-3.8,3.8-9.9,0-13.7l-37.7-37.7l23.5,0
	c5.3,0,9.7-4.3,9.7-9.7C411.1,323.8,406.7,319.5,401.4,319.5"/>
<path d="M408.7,397.6c-3.7,0-7.3-1.4-10.1-4.2l-29.7-29.7V376c0,7.9-6.4,14.3-14.3,14.3c-7.9,0-14.3-6.4-14.3-14.3v-46.8
	c0-0.2,0-0.5,0-0.7c0-0.3,0-0.7,0.1-1.1c0-0.3,0.1-0.6,0.2-1l0-0.2c0.1-0.3,0.1-0.6,0.2-0.8c0.1-0.3,0.2-0.6,0.3-0.9l0.1-0.2
	c0.1-0.2,0.1-0.3,0.2-0.5c0.1-0.2,0.2-0.4,0.3-0.6c0.1-0.2,0.2-0.4,0.3-0.6l0.3-0.5c0.1-0.2,0.2-0.4,0.3-0.6l0.1-0.1
	c0.2-0.3,0.4-0.5,0.5-0.8c0.2-0.3,0.4-0.5,0.6-0.8c0.3-0.3,0.5-0.5,0.7-0.8c0.2-0.2,0.5-0.5,0.7-0.7l0.1-0.1
	c0.3-0.2,0.5-0.4,0.8-0.6c0.3-0.2,0.6-0.4,0.9-0.6c0.2-0.2,0.6-0.3,0.9-0.5c0.2-0.1,0.5-0.3,0.8-0.4c0.2-0.1,0.3-0.2,0.5-0.2
	c0.2-0.1,0.4-0.2,0.6-0.2l0,0c0.3-0.1,0.6-0.2,1-0.3c0.4-0.1,0.7-0.2,1.1-0.2c0.3-0.1,0.7-0.1,1.1-0.2c0.3,0,0.6-0.1,1-0.1
	c0.2,0,0.5,0,0.7,0h46.8c7.9,0,14.3,6.4,14.3,14.3c0,7.9-6.4,14.3-14.3,14.3l-12.2,0l29.7,29.7c2.7,2.7,4.2,6.3,4.2,10.1
	s-1.5,7.4-4.2,10.1C416.1,396.2,412.4,397.6,408.7,397.6z M359.6,341.2l45.7,45.7c1.9,1.9,5.1,1.9,7,0c0.9-0.9,1.5-2.2,1.5-3.5
	s-0.5-2.6-1.5-3.5l-45.7-45.7l34.8,0c2.7,0,5-2.2,5-5c0-2.7-2.2-5-5-5h-46.7c-0.1,0-0.2,0-0.3,0l-0.1,0c-0.1,0-0.3,0-0.4,0
	c-0.1,0-0.2,0-0.3,0.1c-0.1,0-0.2,0-0.3,0.1c-0.1,0-0.3,0.1-0.4,0.1c-0.1,0-0.2,0.1-0.2,0.1c0,0,0,0-0.1,0c-0.1,0.1-0.2,0.1-0.3,0.2
	c-0.2,0.1-0.2,0.1-0.3,0.2c-0.1,0.1-0.2,0.1-0.3,0.2l-0.1,0.1c-0.1,0.1-0.1,0.1-0.2,0.2c-0.1,0.1-0.2,0.2-0.3,0.3
	c-0.1,0.1-0.2,0.2-0.3,0.3c0,0.1-0.1,0.2-0.2,0.3c-0.1,0.1-0.1,0.2-0.2,0.3c0,0-0.1,0.1-0.1,0.1l-0.3,0.6c0,0.1,0,0.1-0.1,0.2l0,0.1
	c0,0.1-0.1,0.1-0.1,0.2l0,0.1c0,0.1,0,0.1,0,0.2l0,0.1c0,0.1,0,0.2,0,0.3c0,0.2,0,0.3,0,0.4l0,0.3V376c0,2.7,2.2,5,5,5
	c2.7,0,5-2.2,5-5V341.2z M349.8,327.6L349.8,327.6C349.8,327.6,349.8,327.6,349.8,327.6z"/>
<path class="st2" d="M155.1,376v-46.8c0-0.2,0-0.3,0-0.5c0-0.2,0-0.5-0.1-0.7c0-0.2-0.1-0.5-0.1-0.7c0-0.2-0.1-0.4-0.1-0.7
	c-0.1-0.2-0.2-0.5-0.2-0.7c0-0.1-0.1-0.3-0.1-0.4c0-0.1-0.1-0.1-0.1-0.2c-0.1-0.2-0.2-0.5-0.3-0.7c-0.1-0.2-0.2-0.4-0.3-0.6
	c-0.1-0.2-0.3-0.4-0.4-0.6c-0.1-0.2-0.3-0.4-0.4-0.5c-0.2-0.2-0.3-0.3-0.5-0.5c-0.2-0.2-0.3-0.3-0.5-0.5c-0.2-0.2-0.4-0.3-0.6-0.4
	c-0.2-0.1-0.4-0.3-0.6-0.4c-0.2-0.1-0.4-0.2-0.6-0.3c-0.2-0.1-0.4-0.2-0.7-0.3c-0.1,0-0.1-0.1-0.2-0.1c-0.1-0.1-0.3-0.1-0.4-0.1
	c-0.2-0.1-0.5-0.2-0.7-0.2c-0.2-0.1-0.5-0.1-0.7-0.2c-0.2,0-0.5-0.1-0.7-0.1c-0.2,0-0.5,0-0.7-0.1c-0.2,0-0.3,0-0.5,0H98.6
	c-5.3,0-9.7,4.3-9.7,9.7c0,5.3,4.3,9.7,9.7,9.7l23.5,0l-37.7,37.7c-3.8,3.8-3.8,9.9,0,13.7c3.8,3.8,9.9,3.8,13.7,0l37.7-37.7V376
	c0,5.3,4.3,9.7,9.7,9.7C150.7,385.6,155.1,381.3,155.1,376"/>
<path d="M91.3,397.6c-3.8,0-7.4-1.5-10.1-4.2c-5.6-5.6-5.6-14.7,0-20.3l29.7-29.7l-12.2,0c-7.9,0-14.3-6.4-14.3-14.3
	c0-7.9,6.4-14.3,14.3-14.3h46.8c0.2,0,0.5,0,0.7,0c0.3,0,0.7,0,1,0.1c0.4,0,0.7,0.1,1,0.2c0.4,0.1,0.7,0.2,1.1,0.2
	c0.3,0.1,0.6,0.2,1,0.3c0.2,0.1,0.4,0.1,0.6,0.2c0.2,0.1,0.4,0.2,0.6,0.3c0.3,0.1,0.6,0.3,0.8,0.4l0.1,0.1c0.3,0.2,0.6,0.3,0.8,0.5
	c0.2,0.2,0.5,0.4,0.8,0.6l0.1,0.1c0.2,0.2,0.5,0.4,0.7,0.5c0.3,0.2,0.5,0.5,0.8,0.7c0.3,0.2,0.5,0.5,0.7,0.8
	c0.2,0.2,0.4,0.5,0.6,0.8c0.2,0.3,0.4,0.5,0.6,0.8c0.2,0.4,0.4,0.7,0.5,0.9c0.2,0.3,0.3,0.6,0.4,0.9c0.1,0.1,0.1,0.3,0.2,0.5
	c0.1,0.2,0.2,0.4,0.2,0.7c0.1,0.3,0.2,0.6,0.3,0.9c0.1,0.3,0.2,0.6,0.2,1l-4.6,1l4.6-0.9c0.1,0.4,0.1,0.7,0.2,1.1
	c0,0.3,0.1,0.6,0.1,1c0,0.3,0,0.5,0,0.7V376c0,7.9-6.4,14.3-14.3,14.3c-7.9,0-14.3-6.4-14.3-14.3v-12.2l-29.7,29.7
	C98.7,396.2,95.1,397.6,91.3,397.6z M133.4,334.1l-45.7,45.7c-1.9,1.9-1.9,5.1,0,7c0.9,0.9,2.2,1.5,3.5,1.5s2.6-0.5,3.5-1.5
	l45.7-45.7V376c0,2.7,2.2,5,5,5c2.7,0,5-2.2,5-5v-46.7c0-0.1,0-0.3,0-0.4c0-0.1,0-0.2,0-0.3l-0.1-0.7c0-0.1-0.1-0.2-0.1-0.4
	c0-0.1-0.1-0.2-0.1-0.3c0,0,0,0,0,0c-0.1-0.1-0.1-0.2-0.2-0.3l-0.1-0.1c0-0.1-0.1-0.2-0.1-0.3c0,0-0.1-0.1-0.2-0.2l-0.1-0.1
	c-0.1-0.1-0.1-0.1-0.2-0.2c-0.1-0.1-0.2-0.2-0.2-0.2l-0.1-0.1c-0.1-0.1-0.1-0.1-0.2-0.2c-0.1-0.1-0.2-0.1-0.3-0.2l-0.1-0.1
	c0,0-0.1-0.1-0.2-0.2c-0.1-0.1-0.2-0.1-0.2-0.1l-0.1-0.1c-0.1,0-0.2-0.1-0.3-0.2c0,0-0.1,0-0.1-0.1c-0.1,0-0.2-0.1-0.2-0.1
	c-0.1,0-0.2-0.1-0.4-0.1c-0.1,0-0.2-0.1-0.3-0.1c-0.1,0-0.2,0-0.4-0.1c-0.1,0-0.2,0-0.3,0c-0.2,0-0.3,0-0.4,0H98.6c-2.7,0-5,2.2-5,5
	c0,2.7,2.2,5,5,5L133.4,334.1z M158.9,324.2C158.9,324.3,158.9,324.3,158.9,324.2C158.9,324.3,158.9,324.3,158.9,324.2z"/>
</svg>
