<?xml version="1.0" encoding="utf-8"?>
<!-- Generator: Adobe Illustrator 25.2.1, SVG Export Plug-In . SVG Version: 6.00 Build 0)  -->
<svg version="1.1" id="Layer_1" xmlns="http://www.w3.org/2000/svg" xmlns:xlink="http://www.w3.org/1999/xlink" x="0px" y="0px"
	 viewBox="0 0 500 500" style="enable-background:new 0 0 500 500;" xml:space="preserve">
<style type="text/css">
	.st0{fill:#A9D1ED;}
	.st1{fill:none;stroke:#1D1D1B;stroke-width:4.4812;stroke-miterlimit:10;}
	.st2{fill:#FFFFFF;}
</style>
<path class="st0" d="M420.1,254.1c0,93.9-76.1,170.1-170.1,170.1c-93.9,0-170.1-76.2-170.1-170.1C79.9,160.2,156.1,84,250,84
	C343.9,84,420.1,160.2,420.1,254.1"/>
<rect y="0" class="st1" width="500" height="500"/>
<path class="st2" d="M372.8,361.5H127.2c-12.5,0-22.7-10.2-22.7-22.7V161.2c0-12.5,10.2-22.7,22.7-22.7h245.6
	c12.5,0,22.7,10.2,22.7,22.7v177.6C395.5,351.3,385.3,361.5,372.8,361.5"/>
<path d="M372.8,366.8H127.2c-15.4,0-28-12.6-28-28V161.2c0-15.4,12.6-28,28-28h245.6c15.4,0,28,12.6,28,28v177.6
	C400.8,354.2,388.3,366.8,372.8,366.8z M127.2,143.9c-9.6,0-17.4,7.8-17.4,17.3v177.6c0,9.6,7.8,17.4,17.4,17.4h245.6
	c9.6,0,17.3-7.8,17.3-17.4V161.2c0-9.6-7.8-17.3-17.3-17.3H127.2z"/>
<path class="st2" d="M187.3,336.5h-46.8c-0.2,0-0.3,0-0.5,0c-0.2,0-0.5,0-0.7-0.1c-0.2,0-0.5-0.1-0.7-0.1c-0.2,0-0.4-0.1-0.7-0.2
	c-0.2-0.1-0.5-0.1-0.7-0.2c-0.1,0-0.3-0.1-0.4-0.1c-0.1,0-0.1-0.1-0.2-0.1c-0.2-0.1-0.5-0.2-0.7-0.3c-0.2-0.1-0.4-0.2-0.6-0.3
	c-0.2-0.1-0.4-0.3-0.6-0.4c-0.2-0.1-0.4-0.3-0.5-0.4c-0.2-0.2-0.3-0.3-0.5-0.5c-0.2-0.2-0.3-0.3-0.5-0.5c-0.2-0.2-0.3-0.4-0.4-0.6
	s-0.3-0.4-0.4-0.6c-0.1-0.2-0.2-0.4-0.3-0.6c-0.1-0.2-0.2-0.4-0.3-0.7c0-0.1-0.1-0.1-0.1-0.2c-0.1-0.1-0.1-0.3-0.1-0.4
	c-0.1-0.2-0.2-0.5-0.2-0.7c-0.1-0.2-0.1-0.5-0.2-0.7c0-0.2-0.1-0.5-0.1-0.7c0-0.2,0-0.5-0.1-0.7c0-0.2,0-0.3,0-0.5V280
	c0-5.3,4.3-9.7,9.7-9.7s9.7,4.3,9.7,9.7v23.5l37.7-37.7c3.8-3.8,9.9-3.8,13.7,0c3.8,3.8,3.8,9.9,0,13.7l-37.7,37.7h23.5
	c5.3,0,9.7,4.3,9.7,9.7C197,332.2,192.7,336.5,187.3,336.5"/>
<path d="M187.3,341.2h-46.8c-0.2,0-0.5,0-0.7,0h0l0,0c-0.4,0-0.7,0-1-0.1c-0.3,0-0.7-0.1-1.1-0.2c-0.3-0.1-0.6-0.1-1-0.2
	c-0.3-0.1-0.6-0.2-1-0.3c-0.3-0.1-0.5-0.2-0.7-0.3c-0.1-0.1-0.2-0.1-0.3-0.2l0,0c-0.3-0.1-0.6-0.3-0.9-0.5c-0.3-0.2-0.6-0.3-0.9-0.5
	c-0.3-0.2-0.6-0.4-0.9-0.6l-0.1-0.1c-0.2-0.2-0.5-0.4-0.7-0.6c-0.2-0.2-0.5-0.5-0.7-0.7c-0.2-0.2-0.5-0.5-0.7-0.7
	c-0.3-0.3-0.5-0.6-0.7-0.9c-0.2-0.2-0.4-0.5-0.5-0.8c-0.2-0.3-0.3-0.6-0.5-0.8l-0.1-0.3c-0.1-0.2-0.2-0.5-0.3-0.7
	c-0.1-0.2-0.2-0.3-0.3-0.6c-0.1-0.2-0.1-0.3-0.2-0.5l-0.1-0.2c-0.1-0.3-0.2-0.6-0.3-0.9c-0.1-0.3-0.1-0.6-0.2-0.9l-0.1-0.4
	c-0.1-0.3-0.1-0.6-0.1-0.8c0-0.3-0.1-0.6-0.1-1c0-0.3,0-0.5,0-0.7V280c0-7.9,6.4-14.3,14.3-14.3s14.3,6.4,14.3,14.3v12.2l29.7-29.7
	c2.7-2.7,6.3-4.2,10.1-4.2c3.8,0,7.4,1.5,10.1,4.2c2.7,2.7,4.2,6.3,4.2,10.1s-1.5,7.4-4.2,10.1l-29.7,29.7h12.2
	c7.9,0,14.3,6.4,14.3,14.3C201.7,334.8,195.2,341.2,187.3,341.2z M140.7,331.8h46.7c2.7,0,5-2.2,5-5c0-2.7-2.2-5-5-5h-34.8
	l45.7-45.7c0.9-0.9,1.5-2.2,1.5-3.5s-0.5-2.6-1.5-3.5c-0.9-0.9-2.2-1.5-3.5-1.5c-1.3,0-2.6,0.5-3.5,1.5l-45.7,45.7V280
	c0-2.7-2.2-5-5-5s-5,2.2-5,5v46.7c0,0.2,0,0.3,0,0.4c0,0,0,0.1,0,0.3c0,0.2,0,0.2,0,0.3l0,0.1c0,0.1,0,0.2,0.1,0.3l0,0.1
	c0,0.1,0,0.1,0.1,0.2l0,0.1c0,0.1,0,0.1,0.1,0.2c0,0,0,0,0,0l0.1,0.1c0,0.1,0.1,0.1,0.1,0.2l0.1,0.2c0,0.1,0.1,0.1,0.1,0.2
	c0.1,0.1,0.1,0.2,0.2,0.3c0.1,0.1,0.2,0.2,0.2,0.3c0,0,0.1,0.1,0.2,0.2l0.1,0.1c0.1,0.1,0.1,0.1,0.2,0.2l0.3,0.2
	c0.1,0.1,0.2,0.1,0.3,0.2c0.1,0,0.1,0.1,0.2,0.1l0.2,0.1c0.1,0.1,0.2,0.1,0.3,0.1c0,0,0,0,0,0c0.1,0,0.2,0.1,0.2,0.1
	c0.1,0.1,0.3,0.1,0.4,0.1c0.1,0,0.2,0,0.3,0.1c0.2,0,0.3,0.1,0.3,0.1c0.2,0,0.3,0,0.4,0C140.4,331.8,140.5,331.8,140.7,331.8z"/>
<path class="st2" d="M187.3,163.5h-46.8c-0.2,0-0.3,0-0.5,0c-0.2,0-0.5,0-0.7,0.1c-0.2,0-0.5,0.1-0.7,0.1c-0.2,0-0.4,0.1-0.7,0.1
	c-0.2,0.1-0.5,0.2-0.7,0.2c-0.1,0-0.3,0.1-0.4,0.1c-0.1,0-0.1,0.1-0.2,0.1c-0.2,0.1-0.5,0.2-0.7,0.3c-0.2,0.1-0.4,0.2-0.6,0.3
	c-0.2,0.1-0.4,0.3-0.6,0.4c-0.2,0.1-0.4,0.3-0.5,0.4c-0.2,0.2-0.3,0.3-0.5,0.5c-0.2,0.2-0.3,0.3-0.5,0.5c-0.2,0.2-0.3,0.4-0.4,0.6
	c-0.1,0.2-0.3,0.4-0.4,0.6c-0.1,0.2-0.2,0.4-0.3,0.6c-0.1,0.2-0.2,0.4-0.3,0.7c0,0.1-0.1,0.1-0.1,0.2c-0.1,0.1-0.1,0.3-0.1,0.4
	c-0.1,0.2-0.2,0.5-0.2,0.7c-0.1,0.2-0.1,0.5-0.2,0.7c0,0.2-0.1,0.5-0.1,0.7c0,0.2,0,0.5-0.1,0.7c0,0.2,0,0.3,0,0.5V220
	c0,5.3,4.3,9.7,9.7,9.7s9.7-4.3,9.7-9.7v-23.5l37.7,37.7c3.8,3.8,9.9,3.8,13.7,0c3.8-3.8,3.8-9.9,0-13.7l-37.7-37.7h23.5
	c5.3,0,9.7-4.3,9.7-9.7C197,167.8,192.7,163.5,187.3,163.5"/>
<path d="M194.7,241.7c-3.8,0-7.4-1.5-10.1-4.2l-29.7-29.7V220c0,7.9-6.4,14.3-14.3,14.3s-14.3-6.4-14.3-14.3v-46.8
	c0-0.2,0-0.5,0-0.7l0,0.1c0-0.5,0-0.8,0.1-1.2c0-0.2,0.1-0.5,0.1-0.8l0.1-0.3c0.1-0.3,0.1-0.6,0.2-0.9c0.1-0.3,0.2-0.6,0.3-0.9
	l0.1-0.2c0.1-0.2,0.1-0.3,0.2-0.5c0.1-0.2,0.2-0.5,0.3-0.6c0.1-0.3,0.3-0.5,0.4-0.8l0.1-0.1c0.1-0.3,0.3-0.5,0.4-0.7l0.1-0.1
	c0.2-0.3,0.4-0.5,0.6-0.8c0.2-0.3,0.4-0.5,0.6-0.8c0.3-0.3,0.5-0.5,0.7-0.8c0.2-0.3,0.5-0.5,0.8-0.7c0.2-0.2,0.4-0.3,0.7-0.5
	l0.1-0.1c0.3-0.2,0.6-0.4,0.8-0.6c0.3-0.2,0.6-0.4,0.9-0.5c0.3-0.2,0.6-0.3,0.9-0.5l0,0c0.1-0.1,0.2-0.1,0.3-0.2
	c0.2-0.1,0.5-0.2,0.7-0.3c0.3-0.1,0.6-0.2,0.9-0.3c0.4-0.1,0.7-0.2,1-0.2c0.3-0.1,0.7-0.1,1.2-0.2c0.3,0,0.6-0.1,0.9-0.1l0,0
	c0.3,0,0.5,0,0.7,0h46.8c7.9,0,14.3,6.4,14.3,14.3c0,7.9-6.4,14.3-14.3,14.3h-12.2l29.7,29.7c2.7,2.7,4.2,6.3,4.2,10.1
	s-1.5,7.4-4.2,10.1C202.1,240.2,198.5,241.7,194.7,241.7z M145.5,185.2l45.7,45.7c0.9,0.9,2.2,1.5,3.5,1.5c1.3,0,2.6-0.5,3.5-1.5
	c0.9-0.9,1.5-2.2,1.5-3.5s-0.5-2.6-1.5-3.5l-45.7-45.7h34.8c2.7,0,5-2.2,5-5c0-2.7-2.2-5-5-5h-46.7c-0.1,0-0.3,0-0.4,0
	c-0.1,0-0.2,0-0.3,0l-0.5,0.1c-0.1,0-0.2,0-0.2,0c-0.1,0-0.2,0.1-0.4,0.1c-0.1,0-0.2,0.1-0.2,0.1c0,0,0,0,0,0
	c-0.1,0-0.2,0.1-0.3,0.1l-0.2,0.1c-0.1,0-0.1,0.1-0.2,0.1c-0.1,0-0.2,0.1-0.3,0.2l-0.3,0.2c-0.1,0.1-0.2,0.2-0.2,0.2l-0.1,0.1
	c-0.1,0.1-0.1,0.1-0.2,0.2c0,0.1-0.1,0.2-0.2,0.3c-0.1,0.1-0.2,0.2-0.2,0.3c0,0.1-0.1,0.1-0.1,0.2l-0.1,0.1c0,0.1-0.1,0.2-0.2,0.3
	l-0.1,0.1c0,0.1,0,0.1-0.1,0.2l0,0.1c0,0.1-0.1,0.2-0.1,0.2c0,0.2-0.1,0.3-0.1,0.4l0,0.1c0,0.1,0,0.2,0,0.2c0,0.2,0,0.3,0,0.4
	c0,0.1,0,0.2,0,0.4V220c0,2.7,2.2,5,5,5s5-2.2,5-5V185.2z M139.9,158.9C139.9,158.9,139.9,158.9,139.9,158.9L139.9,158.9z"/>
<path class="st2" d="M311.8,336.5h46.8c0.2,0,0.3,0,0.5,0c0.2,0,0.5,0,0.7-0.1c0.2,0,0.5-0.1,0.7-0.1c0.2,0,0.4-0.1,0.7-0.2
	c0.2-0.1,0.5-0.1,0.7-0.2c0.1,0,0.3-0.1,0.4-0.1c0.1,0,0.1-0.1,0.2-0.1c0.2-0.1,0.5-0.2,0.7-0.3c0.2-0.1,0.4-0.2,0.6-0.3
	c0.2-0.1,0.4-0.3,0.6-0.4c0.2-0.1,0.4-0.3,0.5-0.4c0.2-0.2,0.3-0.3,0.5-0.5c0.2-0.2,0.3-0.3,0.5-0.5c0.2-0.2,0.3-0.4,0.4-0.6
	s0.3-0.4,0.4-0.6c0.1-0.2,0.2-0.4,0.3-0.6c0.1-0.2,0.2-0.4,0.3-0.7c0-0.1,0.1-0.1,0.1-0.2c0.1-0.1,0.1-0.3,0.1-0.4
	c0.1-0.2,0.2-0.5,0.2-0.7c0.1-0.2,0.1-0.5,0.2-0.7c0-0.2,0.1-0.5,0.1-0.7c0-0.2,0-0.5,0.1-0.7c0-0.2,0-0.3,0-0.5V280
	c0-5.3-4.3-9.7-9.7-9.7c-5.3,0-9.7,4.3-9.7,9.7v23.5l-37.7-37.7c-3.8-3.8-9.9-3.8-13.7,0c-3.8,3.8-3.8,9.9,0,13.7l37.7,37.7h-23.5
	c-5.3,0-9.7,4.3-9.7,9.7C302.1,332.2,306.5,336.5,311.8,336.5"/>
<path d="M358.6,341.2h-46.8c-7.9,0-14.3-6.4-14.3-14.3c0-7.9,6.4-14.3,14.3-14.3H324l-29.7-29.7c-2.7-2.7-4.2-6.3-4.2-10.1
	s1.5-7.4,4.2-10.1c2.7-2.7,6.3-4.2,10.1-4.2s7.4,1.5,10.1,4.2l29.7,29.7V280c0-7.9,6.4-14.3,14.3-14.3c7.9,0,14.3,6.4,14.3,14.3
	v46.8c0,0.2,0,0.5,0,0.7l0,0c0,0.3,0,0.7-0.1,1c0,0.3-0.1,0.5-0.1,0.8l-0.1,0.4c-0.1,0.3-0.1,0.6-0.2,0.9c-0.1,0.2-0.2,0.5-0.3,0.8
	l-0.1,0.3c-0.1,0.2-0.1,0.4-0.2,0.5c-0.1,0.2-0.2,0.3-0.2,0.5c-0.1,0.2-0.2,0.5-0.4,0.7l-0.1,0.1c-0.2,0.4-0.3,0.6-0.5,0.9
	c-0.2,0.3-0.4,0.6-0.6,0.8c-0.2,0.3-0.4,0.6-0.7,0.8c-0.3,0.3-0.5,0.5-0.7,0.8c-0.3,0.3-0.5,0.5-0.8,0.7c-0.2,0.2-0.4,0.4-0.7,0.5
	l-0.1,0.1c-0.3,0.2-0.6,0.4-0.9,0.6c-0.3,0.2-0.6,0.4-0.9,0.5c-0.3,0.2-0.6,0.3-0.9,0.5l0,0c-0.1,0.1-0.2,0.1-0.3,0.2
	c-0.2,0.1-0.5,0.2-0.7,0.3c-0.3,0.1-0.7,0.2-1,0.3c-0.3,0.1-0.7,0.2-1,0.2c-0.3,0.1-0.7,0.1-1.1,0.2c-0.3,0-0.6,0.1-0.9,0.1l-0.1,0
	C359.1,341.2,358.8,341.2,358.6,341.2z M311.8,321.9c-2.7,0-5,2.2-5,5c0,2.7,2.2,5,5,5h46.7c0.1,0,0.3,0,0.4,0c0.1,0,0.2,0,0.3,0
	c0.2,0,0.3,0,0.4-0.1c0.2,0,0.3,0,0.4-0.1c0.2,0,0.3-0.1,0.4-0.1c0.1,0,0.2-0.1,0.3-0.1c0,0,0,0,0,0c0.1,0,0.2-0.1,0.3-0.1l0.2-0.1
	c0.1,0,0.1-0.1,0.2-0.1c0.1-0.1,0.2-0.1,0.3-0.2l0.3-0.3c0.1-0.1,0.2-0.2,0.2-0.2l0.1-0.1c0.1-0.1,0.2-0.1,0.2-0.2
	c0,0,0.1-0.2,0.2-0.3c0.1-0.1,0.2-0.2,0.2-0.3c0-0.1,0.1-0.1,0.1-0.2l0.1-0.2c0-0.1,0.1-0.2,0.1-0.2l0.1-0.1c0,0,0,0,0,0
	c0-0.1,0-0.1,0.1-0.2l0-0.1c0-0.1,0.1-0.1,0.1-0.2c0-0.2,0.1-0.3,0.1-0.4l0.1-0.3c0-0.2,0-0.3,0-0.4c0-0.1,0-0.3,0-0.4V280
	c0-2.7-2.2-5-5-5c-2.7,0-5,2.2-5,5v34.8L308,269.2c-0.9-0.9-2.2-1.5-3.5-1.5s-2.6,0.5-3.5,1.5c-0.9,0.9-1.5,2.2-1.5,3.5
	s0.5,2.6,1.5,3.5l45.7,45.7H311.8z"/>
<path class="st2" d="M311.8,163.5h46.8c0.2,0,0.3,0,0.5,0c0.2,0,0.5,0,0.7,0.1c0.2,0,0.5,0.1,0.7,0.1c0.2,0,0.4,0.1,0.7,0.1
	c0.2,0.1,0.5,0.2,0.7,0.2c0.1,0,0.3,0.1,0.4,0.1c0.1,0,0.1,0.1,0.2,0.1c0.2,0.1,0.5,0.2,0.7,0.3c0.2,0.1,0.4,0.2,0.6,0.3
	c0.2,0.1,0.4,0.3,0.6,0.4c0.2,0.1,0.4,0.3,0.5,0.4c0.2,0.2,0.3,0.3,0.5,0.5c0.2,0.2,0.3,0.3,0.5,0.5c0.2,0.2,0.3,0.4,0.4,0.6
	c0.1,0.2,0.3,0.4,0.4,0.6c0.1,0.2,0.2,0.4,0.3,0.6c0.1,0.2,0.2,0.4,0.3,0.7c0,0.1,0.1,0.1,0.1,0.2c0.1,0.1,0.1,0.3,0.1,0.4
	c0.1,0.2,0.2,0.5,0.2,0.7c0.1,0.2,0.1,0.5,0.2,0.7c0,0.2,0.1,0.5,0.1,0.7c0,0.2,0,0.5,0.1,0.7c0,0.2,0,0.3,0,0.5V220
	c0,5.3-4.3,9.7-9.7,9.7c-5.3,0-9.7-4.3-9.7-9.7v-23.5l-37.7,37.7c-3.8,3.8-9.9,3.8-13.7,0c-3.8-3.8-3.8-9.9,0-13.7l37.7-37.7h-23.5
	c-5.3,0-9.7-4.3-9.7-9.7C302.1,167.8,306.5,163.5,311.8,163.5"/>
<path d="M304.5,241.7c-3.8,0-7.4-1.5-10.1-4.2c-2.7-2.7-4.2-6.3-4.2-10.1s1.5-7.4,4.2-10.1l29.7-29.7h-12.2
	c-7.9,0-14.3-6.4-14.3-14.3c0-7.9,6.4-14.3,14.3-14.3h46.8c0.2,0,0.5,0,0.7,0c0.3,0,0.6,0,0.9,0.1c0.5,0,0.8,0.1,1.1,0.2
	c0.4,0.1,0.7,0.1,1,0.2c0.4,0.1,0.7,0.2,1,0.3c0.3,0.1,0.5,0.2,0.7,0.3c0.1,0.1,0.2,0.1,0.4,0.2l0,0c0.3,0.1,0.6,0.3,0.9,0.5
	c0.3,0.2,0.6,0.3,0.9,0.5c0.3,0.2,0.6,0.4,0.9,0.6l0.1,0.1c0.2,0.2,0.5,0.4,0.7,0.6c0.2,0.2,0.5,0.5,0.7,0.7
	c0.2,0.2,0.5,0.5,0.7,0.7c0.3,0.3,0.5,0.6,0.7,0.9c0.2,0.3,0.4,0.5,0.5,0.8l0.1,0.1c0.2,0.2,0.3,0.5,0.4,0.8l0,0.1
	c0.1,0.3,0.3,0.5,0.4,0.8c0.1,0.1,0.2,0.3,0.3,0.6c0.1,0.2,0.1,0.3,0.2,0.5l0.1,0.3c0.1,0.3,0.2,0.6,0.3,0.9
	c0.1,0.2,0.1,0.5,0.2,0.9l0.1,0.4c0,0.3,0.1,0.5,0.1,0.8c0,0.3,0.1,0.7,0.1,1l0,0c0,0.3,0,0.5,0,0.7V220c0,7.9-6.4,14.3-14.3,14.3
	c-7.9,0-14.3-6.4-14.3-14.3v-12.2l-29.7,29.7C311.9,240.2,308.3,241.7,304.5,241.7z M311.8,168.2c-2.7,0-5,2.2-5,5c0,2.7,2.2,5,5,5
	h34.8L301,223.8c-0.9,0.9-1.5,2.2-1.5,3.5s0.5,2.6,1.5,3.5c0.9,0.9,2.2,1.5,3.5,1.5s2.6-0.5,3.5-1.5l45.7-45.7V220c0,2.7,2.2,5,5,5
	c2.7,0,5-2.2,5-5v-46.7c0-0.1,0-0.3,0-0.4c0-0.1,0-0.2,0-0.3l-0.1-0.4c0-0.1,0-0.2-0.1-0.3c0-0.1-0.1-0.2-0.1-0.3l0-0.1
	c0-0.1,0-0.1-0.1-0.2c0,0,0,0,0,0l-0.1-0.1c0-0.1-0.1-0.2-0.2-0.3l-0.1-0.1c0-0.1-0.1-0.1-0.1-0.2c-0.1-0.1-0.1-0.2-0.2-0.3
	c-0.1-0.1-0.2-0.2-0.3-0.3c0,0-0.1-0.1-0.2-0.2l-0.1-0.1c-0.1-0.1-0.1-0.1-0.2-0.2l-0.3-0.2c-0.1-0.1-0.2-0.2-0.3-0.2
	c0,0-0.1,0-0.2-0.1l-0.2-0.1c-0.1-0.1-0.2-0.1-0.3-0.1c0,0,0,0-0.1,0c-0.1,0-0.2-0.1-0.3-0.1c-0.1,0-0.3-0.1-0.4-0.1
	c0,0-0.1,0-0.2,0l-0.5-0.1c-0.1,0-0.2,0-0.3,0c-0.1,0-0.2,0-0.4,0H311.8z M363.5,159.7C363.5,159.7,363.5,159.7,363.5,159.7
	C363.5,159.7,363.5,159.7,363.5,159.7z"/>
</svg>
